<?xml version="1.0" standalone="no"?><!DOCTYPE svg PUBLIC "-//W3C//DTD SVG 1.1//EN" "http://www.w3.org/Graphics/SVG/1.1/DTD/svg11.dtd"><svg t="1679760978154" class="icon" viewBox="0 0 1024 1024" version="1.1" xmlns="http://www.w3.org/2000/svg" p-id="13101" xmlns:xlink="http://www.w3.org/1999/xlink" width="200" height="200"><path d="M235.22 186.48c-7.01-8.36-7.06-20.54-0.1-28.94 18.83-22.73 62.75-64.15 132.79-64.15s113.96 41.42 132.79 64.15c6.96 8.4 6.91 20.58-0.1 28.94-19.05 22.71-63.36 64.25-132.69 64.25s-113.64-41.54-132.69-64.25z m642.52 439.57C845 786.74 717.04 907.38 544.45 918.48c-7.48 0.48-14.9 0.28-22.25-0.56-6.12-0.7-12.28-0.7-18.4 0-7.35 0.84-14.77 1.04-22.25 0.56C308.96 907.38 181 786.74 148.26 626.05s42.24-306.93 151.76-333.3c65.8-15.84 133.73-7.13 187.03 19.56a57.844 57.844 0 0 0 51.88 0c0.18-0.09 0.36-0.17 0.53-0.26-18.79-66.33-16.89-121.89 5.71-165.32 19.26-37 52.44-62.99 98.62-77.24 13.19-4.07 27.19 3.32 31.26 16.52 4.07 13.19-3.32 27.19-16.52 31.26-32.93 10.16-56.15 27.84-69.01 52.55-15.87 30.5-16.87 73.3-3.07 124.54 43.41-11.68 92.01-13.04 139.51-1.61 109.53 26.37 184.51 172.61 151.78 333.3zM361.31 385.44c-2.25-10.81-12.84-17.76-23.65-15.51-27.26 5.67-52.25 19.44-72.27 39.82-21.07 21.45-36.01 49.08-44.41 82.12-2.72 10.71 3.75 21.59 14.45 24.31 1.65 0.42 3.31 0.62 4.94 0.62 8.93 0 17.07-6.02 19.37-15.08 12.75-50.15 44.12-83.92 86.06-92.64 10.82-2.23 17.76-12.82 15.51-23.64z" p-id="13102"></path></svg>