<?xml version="1.0" standalone="no"?><!DOCTYPE svg PUBLIC "-//W3C//DTD SVG 1.1//EN" "http://www.w3.org/Graphics/SVG/1.1/DTD/svg11.dtd"><svg t="1679558448520" class="icon" viewBox="0 0 1024 1024" version="1.1" xmlns="http://www.w3.org/2000/svg" p-id="1821" xmlns:xlink="http://www.w3.org/1999/xlink" width="200" height="200"><path d="M222.84 808.2c-7.19 0-14.42-1.66-21.15-5.01-16.15-8.05-26.19-24.27-26.19-42.32V114.55c0-15.19 12.31-27.5 27.5-27.5h505.31c15.19 0 27.5 12.31 27.5 27.5v117c0 15.19-12.31 27.5-27.5 27.5s-27.5-12.31-27.5-27.5v-89.5H230.5V745.4l73.95-55.71c12.13-9.14 29.38-6.71 38.51 5.42 9.14 12.13 6.71 29.37-5.42 38.51l-86.3 65.02c-8.4 6.33-18.36 9.56-28.4 9.56z" fill="#3376E5" p-id="1822"></path><path d="M795.12 956.91c-10.01 0-20-2.81-28.75-8.41L570.69 823.44l-195 124.97a53.37 53.37 0 0 1-54.42 1.89 53.361 53.361 0 0 1-27.77-46.84V231.55c0-15.19 12.31-27.5 27.5-27.5h500c15.19 0 27.5 12.31 27.5 27.5v671.98c0 19.51-10.63 37.45-27.74 46.82a53.424 53.424 0 0 1-25.64 6.56z m0.87-54.74zM570.68 768.16c10.01 0 20.01 2.79 28.75 8.37L793.5 900.57V259.05h-445V900.5l193.38-123.93c8.75-5.6 18.77-8.41 28.8-8.41z" fill="#D0E2FA" p-id="1823"></path></svg>