<?xml version="1.0" standalone="no"?><!DOCTYPE svg PUBLIC "-//W3C//DTD SVG 1.1//EN" "http://www.w3.org/Graphics/SVG/1.1/DTD/svg11.dtd"><svg t="1679275564100" class="icon" viewBox="0 0 1024 1024" version="1.1" xmlns="http://www.w3.org/2000/svg" p-id="4530" xmlns:xlink="http://www.w3.org/1999/xlink" width="200" height="200"><path d="M512 780.53376a40.96 40.96 0 0 1 0 81.92H348.16a40.96 40.96 0 0 1 0-81.92h163.84z m-286.72 0a40.96 40.96 0 0 1 0 81.92H184.32a40.96 40.96 0 0 1 0-81.92h40.96z m614.4-163.84a40.96 40.96 0 0 1 40.96 40.96v163.84a40.96 40.96 0 0 1-40.96 40.96h-163.84a40.96 40.96 0 0 1-40.96-40.96v-163.84a40.96 40.96 0 0 1 40.96-40.96h163.84z m-40.96 81.92h-81.92v81.92h81.92v-81.92z m-286.72-81.92a40.96 40.96 0 0 1 0 81.92H184.32a40.96 40.96 0 0 1 0-81.92h327.68z m163.84-491.52a40.96 40.96 0 0 1 40.96 40.96v327.68a40.96 40.96 0 0 1-81.92 0v-327.68a40.96 40.96 0 0 1 40.96-40.96z m163.84 163.84a40.96 40.96 0 0 1 40.96 40.96v163.84a40.96 40.96 0 0 1-81.92 0v-163.84a40.96 40.96 0 0 1 40.96-40.96z m-368.64-163.84a81.92 81.92 0 0 1 81.92 81.92v245.76a81.92 81.92 0 0 1-81.92 81.92H225.28a81.92 81.92 0 0 1-81.92-81.92v-245.76a81.92 81.92 0 0 1 81.92-81.92h245.76z m0 81.92H225.28v245.76h245.76v-245.76z m-122.88 61.44a61.44 61.44 0 1 1 0 122.88 61.44 61.44 0 0 1 0-122.88z m491.52-143.36a40.96 40.96 0 0 1 40.96 40.96v40.96a40.96 40.96 0 0 1-81.92 0v-40.96a40.96 40.96 0 0 1 40.96-40.96z" fill="#9B9CB7" p-id="4531"></path></svg>